<mxfile host="app.diagrams.net" agent="Mozilla/5.0 (Windows NT 10.0; Win64; x64) AppleWebKit/537.36 (KHTML, like Gecko) Chrome/128.0.0.0 YaBrowser/24.10.0.0 Safari/537.36" version="25.0.1">
  <diagram name="Страница — 1" id="n9r4SKbtFFEj-cmQD1RD">
    <mxGraphModel dx="2369" dy="885" grid="1" gridSize="10" guides="1" tooltips="1" connect="1" arrows="1" fold="1" page="1" pageScale="1" pageWidth="827" pageHeight="1169" math="0" shadow="0">
      <root>
        <mxCell id="0" />
        <mxCell id="1" parent="0" />
        <mxCell id="CFU9wmlR95aFcTzbBdTp-2" value="" style="shape=umlLifeline;perimeter=lifelinePerimeter;whiteSpace=wrap;html=1;container=1;dropTarget=0;collapsible=0;recursiveResize=0;outlineConnect=0;portConstraint=eastwest;newEdgeStyle={&quot;curved&quot;:0,&quot;rounded&quot;:0};participant=umlActor;" vertex="1" parent="1">
          <mxGeometry x="40" y="40" width="20" height="1480" as="geometry" />
        </mxCell>
        <mxCell id="CFU9wmlR95aFcTzbBdTp-26" value="" style="html=1;points=[[0,0,0,0,5],[0,1,0,0,-5],[1,0,0,0,5],[1,1,0,0,-5]];perimeter=orthogonalPerimeter;outlineConnect=0;targetShapes=umlLifeline;portConstraint=eastwest;newEdgeStyle={&quot;curved&quot;:0,&quot;rounded&quot;:0};" vertex="1" parent="CFU9wmlR95aFcTzbBdTp-2">
          <mxGeometry x="5" y="120" width="10" height="200" as="geometry" />
        </mxCell>
        <mxCell id="CFU9wmlR95aFcTzbBdTp-3" value="Cистема" style="shape=umlLifeline;perimeter=lifelinePerimeter;whiteSpace=wrap;html=1;container=1;dropTarget=0;collapsible=0;recursiveResize=0;outlineConnect=0;portConstraint=eastwest;newEdgeStyle={&quot;curved&quot;:0,&quot;rounded&quot;:0};" vertex="1" parent="1">
          <mxGeometry x="160" y="40" width="100" height="1470" as="geometry" />
        </mxCell>
        <mxCell id="CFU9wmlR95aFcTzbBdTp-37" value="" style="html=1;points=[[0,0,0,0,5],[0,1,0,0,-5],[1,0,0,0,5],[1,1,0,0,-5]];perimeter=orthogonalPerimeter;outlineConnect=0;targetShapes=umlLifeline;portConstraint=eastwest;newEdgeStyle={&quot;curved&quot;:0,&quot;rounded&quot;:0};" vertex="1" parent="CFU9wmlR95aFcTzbBdTp-3">
          <mxGeometry x="45" y="550" width="10" height="40" as="geometry" />
        </mxCell>
        <mxCell id="CFU9wmlR95aFcTzbBdTp-38" value="валидация" style="html=1;align=left;spacingLeft=2;endArrow=block;rounded=0;edgeStyle=orthogonalEdgeStyle;curved=0;rounded=0;" edge="1" target="CFU9wmlR95aFcTzbBdTp-37" parent="CFU9wmlR95aFcTzbBdTp-3">
          <mxGeometry relative="1" as="geometry">
            <mxPoint x="50" y="530" as="sourcePoint" />
            <Array as="points">
              <mxPoint x="80" y="560" />
            </Array>
          </mxGeometry>
        </mxCell>
        <mxCell id="CFU9wmlR95aFcTzbBdTp-4" value="База данных" style="shape=umlLifeline;perimeter=lifelinePerimeter;whiteSpace=wrap;html=1;container=1;dropTarget=0;collapsible=0;recursiveResize=0;outlineConnect=0;portConstraint=eastwest;newEdgeStyle={&quot;curved&quot;:0,&quot;rounded&quot;:0};" vertex="1" parent="1">
          <mxGeometry x="380" y="40" width="100" height="1490" as="geometry" />
        </mxCell>
        <mxCell id="CFU9wmlR95aFcTzbBdTp-21" value="" style="html=1;points=[[0,0,0,0,5],[0,1,0,0,-5],[1,0,0,0,5],[1,1,0,0,-5]];perimeter=orthogonalPerimeter;outlineConnect=0;targetShapes=umlLifeline;portConstraint=eastwest;newEdgeStyle={&quot;curved&quot;:0,&quot;rounded&quot;:0};" vertex="1" parent="CFU9wmlR95aFcTzbBdTp-4">
          <mxGeometry x="45" y="150" width="10" height="60" as="geometry" />
        </mxCell>
        <mxCell id="CFU9wmlR95aFcTzbBdTp-5" value="Платежный шлюз" style="shape=umlLifeline;perimeter=lifelinePerimeter;whiteSpace=wrap;html=1;container=1;dropTarget=0;collapsible=0;recursiveResize=0;outlineConnect=0;portConstraint=eastwest;newEdgeStyle={&quot;curved&quot;:0,&quot;rounded&quot;:0};" vertex="1" parent="1">
          <mxGeometry x="630" y="40" width="100" height="1430" as="geometry" />
        </mxCell>
        <mxCell id="CFU9wmlR95aFcTzbBdTp-42" value="" style="html=1;points=[[0,0,0,0,5],[0,1,0,0,-5],[1,0,0,0,5],[1,1,0,0,-5]];perimeter=orthogonalPerimeter;outlineConnect=0;targetShapes=umlLifeline;portConstraint=eastwest;newEdgeStyle={&quot;curved&quot;:0,&quot;rounded&quot;:0};" vertex="1" parent="CFU9wmlR95aFcTzbBdTp-5">
          <mxGeometry x="47" y="680" width="10" height="40" as="geometry" />
        </mxCell>
        <mxCell id="CFU9wmlR95aFcTzbBdTp-43" value="валидация" style="html=1;align=left;spacingLeft=2;endArrow=block;rounded=0;edgeStyle=orthogonalEdgeStyle;curved=0;rounded=0;" edge="1" target="CFU9wmlR95aFcTzbBdTp-42" parent="CFU9wmlR95aFcTzbBdTp-5">
          <mxGeometry relative="1" as="geometry">
            <mxPoint x="52" y="660" as="sourcePoint" />
            <Array as="points">
              <mxPoint x="82" y="690" />
            </Array>
          </mxGeometry>
        </mxCell>
        <mxCell id="CFU9wmlR95aFcTzbBdTp-44" value="" style="html=1;points=[[0,0,0,0,5],[0,1,0,0,-5],[1,0,0,0,5],[1,1,0,0,-5]];perimeter=orthogonalPerimeter;outlineConnect=0;targetShapes=umlLifeline;portConstraint=eastwest;newEdgeStyle={&quot;curved&quot;:0,&quot;rounded&quot;:0};" vertex="1" parent="CFU9wmlR95aFcTzbBdTp-5">
          <mxGeometry x="46" y="764" width="10" height="40" as="geometry" />
        </mxCell>
        <mxCell id="CFU9wmlR95aFcTzbBdTp-45" value="списание&amp;nbsp;&lt;div&gt;денег&lt;/div&gt;" style="html=1;align=left;spacingLeft=2;endArrow=block;rounded=0;edgeStyle=orthogonalEdgeStyle;curved=0;rounded=0;" edge="1" target="CFU9wmlR95aFcTzbBdTp-44" parent="CFU9wmlR95aFcTzbBdTp-5">
          <mxGeometry relative="1" as="geometry">
            <mxPoint x="51" y="744" as="sourcePoint" />
            <Array as="points">
              <mxPoint x="81" y="774" />
            </Array>
          </mxGeometry>
        </mxCell>
        <mxCell id="CFU9wmlR95aFcTzbBdTp-15" value="Выбор курса" style="html=1;verticalAlign=bottom;endArrow=block;curved=0;rounded=0;" edge="1" parent="1">
          <mxGeometry width="80" relative="1" as="geometry">
            <mxPoint x="50" y="170" as="sourcePoint" />
            <mxPoint x="209.5" y="170" as="targetPoint" />
          </mxGeometry>
        </mxCell>
        <mxCell id="CFU9wmlR95aFcTzbBdTp-16" value="Проверка доступность курса" style="html=1;verticalAlign=bottom;endArrow=block;curved=0;rounded=0;" edge="1" parent="1">
          <mxGeometry width="80" relative="1" as="geometry">
            <mxPoint x="210" y="200" as="sourcePoint" />
            <mxPoint x="429.5" y="200" as="targetPoint" />
          </mxGeometry>
        </mxCell>
        <mxCell id="CFU9wmlR95aFcTzbBdTp-17" value="Курс доступен" style="html=1;verticalAlign=bottom;endArrow=open;dashed=1;endSize=8;curved=0;rounded=0;" edge="1" parent="1">
          <mxGeometry relative="1" as="geometry">
            <mxPoint x="430" y="239.62" as="sourcePoint" />
            <mxPoint x="210" y="240" as="targetPoint" />
          </mxGeometry>
        </mxCell>
        <mxCell id="CFU9wmlR95aFcTzbBdTp-23" value="Курс доступен" style="html=1;verticalAlign=bottom;endArrow=open;dashed=1;endSize=8;curved=0;rounded=0;" edge="1" parent="1">
          <mxGeometry relative="1" as="geometry">
            <mxPoint x="210" y="250" as="sourcePoint" />
            <mxPoint x="49.700000000000045" y="250" as="targetPoint" />
          </mxGeometry>
        </mxCell>
        <mxCell id="CFU9wmlR95aFcTzbBdTp-24" value="alt" style="shape=umlFrame;whiteSpace=wrap;html=1;pointerEvents=0;" vertex="1" parent="1">
          <mxGeometry x="20" y="110" width="440" height="260" as="geometry" />
        </mxCell>
        <mxCell id="CFU9wmlR95aFcTzbBdTp-25" value="" style="line;strokeWidth=1;fillColor=none;align=left;verticalAlign=middle;spacingTop=-1;spacingLeft=3;spacingRight=3;rotatable=0;labelPosition=right;points=[];portConstraint=eastwest;strokeColor=inherit;dashed=1;dashPattern=8 8;" vertex="1" parent="1">
          <mxGeometry x="20" y="269" width="440" height="8" as="geometry" />
        </mxCell>
        <mxCell id="CFU9wmlR95aFcTzbBdTp-27" value="Курс не доступен" style="html=1;verticalAlign=bottom;endArrow=open;dashed=1;endSize=8;curved=0;rounded=0;" edge="1" parent="1" target="CFU9wmlR95aFcTzbBdTp-3">
          <mxGeometry relative="1" as="geometry">
            <mxPoint x="430" y="320" as="sourcePoint" />
            <mxPoint x="350" y="320" as="targetPoint" />
          </mxGeometry>
        </mxCell>
        <mxCell id="CFU9wmlR95aFcTzbBdTp-28" value="Курс не доступен" style="html=1;verticalAlign=bottom;endArrow=open;dashed=1;endSize=8;curved=0;rounded=0;" edge="1" parent="1" target="CFU9wmlR95aFcTzbBdTp-2">
          <mxGeometry relative="1" as="geometry">
            <mxPoint x="210" y="350" as="sourcePoint" />
            <mxPoint x="130" y="350" as="targetPoint" />
          </mxGeometry>
        </mxCell>
        <mxCell id="CFU9wmlR95aFcTzbBdTp-29" value="" style="html=1;points=[[0,0,0,0,5],[0,1,0,0,-5],[1,0,0,0,5],[1,1,0,0,-5]];perimeter=orthogonalPerimeter;outlineConnect=0;targetShapes=umlLifeline;portConstraint=eastwest;newEdgeStyle={&quot;curved&quot;:0,&quot;rounded&quot;:0};" vertex="1" parent="1">
          <mxGeometry x="425" y="280" width="10" height="50" as="geometry" />
        </mxCell>
        <mxCell id="CFU9wmlR95aFcTzbBdTp-30" value="alt" style="shape=umlFrame;whiteSpace=wrap;html=1;pointerEvents=0;" vertex="1" parent="1">
          <mxGeometry x="-20" y="440" width="810" height="960" as="geometry" />
        </mxCell>
        <mxCell id="CFU9wmlR95aFcTzbBdTp-31" value="онлайн" style="html=1;verticalAlign=bottom;endArrow=block;curved=0;rounded=0;" edge="1" parent="1" target="CFU9wmlR95aFcTzbBdTp-3">
          <mxGeometry width="80" relative="1" as="geometry">
            <mxPoint x="50" y="470" as="sourcePoint" />
            <mxPoint x="130" y="470" as="targetPoint" />
          </mxGeometry>
        </mxCell>
        <mxCell id="CFU9wmlR95aFcTzbBdTp-32" value="Способы оплаты&lt;div&gt;online&lt;/div&gt;" style="text;align=center;fontStyle=1;verticalAlign=middle;spacingLeft=3;spacingRight=3;strokeColor=none;rotatable=0;points=[[0,0.5],[1,0.5]];portConstraint=eastwest;html=1;" vertex="1" parent="1">
          <mxGeometry x="-120" y="440" width="80" height="26" as="geometry" />
        </mxCell>
        <mxCell id="CFU9wmlR95aFcTzbBdTp-33" value="форма для заполнения" style="html=1;verticalAlign=bottom;endArrow=open;dashed=1;endSize=8;curved=0;rounded=0;" edge="1" parent="1">
          <mxGeometry relative="1" as="geometry">
            <mxPoint x="209.8" y="509.6" as="sourcePoint" />
            <mxPoint x="50.00000000000004" y="509.6" as="targetPoint" />
          </mxGeometry>
        </mxCell>
        <mxCell id="CFU9wmlR95aFcTzbBdTp-34" value="" style="endArrow=block;endFill=1;html=1;edgeStyle=orthogonalEdgeStyle;align=left;verticalAlign=top;rounded=0;" edge="1" parent="1">
          <mxGeometry x="-1" relative="1" as="geometry">
            <mxPoint x="50" y="560" as="sourcePoint" />
            <mxPoint x="210" y="560" as="targetPoint" />
          </mxGeometry>
        </mxCell>
        <mxCell id="CFU9wmlR95aFcTzbBdTp-36" value="Форма с данными" style="edgeLabel;html=1;align=center;verticalAlign=middle;resizable=0;points=[];" vertex="1" connectable="0" parent="CFU9wmlR95aFcTzbBdTp-34">
          <mxGeometry x="0.266" relative="1" as="geometry">
            <mxPoint x="-22" as="offset" />
          </mxGeometry>
        </mxCell>
        <mxCell id="CFU9wmlR95aFcTzbBdTp-41" value="Оплата" style="html=1;verticalAlign=bottom;endArrow=block;curved=0;rounded=0;" edge="1" parent="1" target="CFU9wmlR95aFcTzbBdTp-5">
          <mxGeometry width="80" relative="1" as="geometry">
            <mxPoint x="210" y="660" as="sourcePoint" />
            <mxPoint x="290" y="660" as="targetPoint" />
          </mxGeometry>
        </mxCell>
        <mxCell id="CFU9wmlR95aFcTzbBdTp-46" value="Платеж прошел" style="html=1;verticalAlign=bottom;endArrow=open;dashed=1;endSize=8;curved=0;rounded=0;" edge="1" parent="1">
          <mxGeometry relative="1" as="geometry">
            <mxPoint x="680" y="927" as="sourcePoint" />
            <mxPoint x="209.3235294117644" y="927" as="targetPoint" />
          </mxGeometry>
        </mxCell>
        <mxCell id="CFU9wmlR95aFcTzbBdTp-47" value="Оплата прошла успещно" style="html=1;verticalAlign=bottom;endArrow=open;dashed=1;endSize=8;curved=0;rounded=0;" edge="1" parent="1">
          <mxGeometry relative="1" as="geometry">
            <mxPoint x="210" y="957" as="sourcePoint" />
            <mxPoint x="49.32352941176441" y="957" as="targetPoint" />
          </mxGeometry>
        </mxCell>
        <mxCell id="CFU9wmlR95aFcTzbBdTp-48" value="frame" style="shape=umlFrame;whiteSpace=wrap;html=1;pointerEvents=0;" vertex="1" parent="1">
          <mxGeometry x="30" y="897" width="760" height="200" as="geometry" />
        </mxCell>
        <mxCell id="CFU9wmlR95aFcTzbBdTp-49" value="loop=5" style="shape=umlFrame;whiteSpace=wrap;html=1;pointerEvents=0;" vertex="1" parent="1">
          <mxGeometry x="591" y="763" width="190" height="100" as="geometry" />
        </mxCell>
        <mxCell id="CFU9wmlR95aFcTzbBdTp-50" value="Способы оплаты&lt;div&gt;наличными&lt;/div&gt;" style="text;align=center;fontStyle=1;verticalAlign=middle;spacingLeft=3;spacingRight=3;strokeColor=none;rotatable=0;points=[[0,0.5],[1,0.5]];portConstraint=eastwest;html=1;" vertex="1" parent="1">
          <mxGeometry x="-120" y="1130" width="80" height="26" as="geometry" />
        </mxCell>
      </root>
    </mxGraphModel>
  </diagram>
</mxfile>
